<svg width="24" height="25" viewBox="0 0 24 25" fill="none" xmlns="http://www.w3.org/2000/svg">
<path d="M23.363 9.084L15.985 7.957L12.678 0.913001C12.431 0.387001 11.568 0.387001 11.321 0.913001L8.015 7.957L0.637003 9.084C0.50078 9.10493 0.372958 9.16299 0.26757 9.2518C0.162182 9.34062 0.0833047 9.45675 0.0395978 9.58746C-0.00410895 9.71817 -0.0109548 9.85839 0.0198119 9.99273C0.0505786 10.1271 0.117768 10.2503 0.214003 10.349L5.574 15.843L4.307 23.61C4.28438 23.7489 4.3013 23.8914 4.35582 24.0211C4.41034 24.1509 4.50027 24.2627 4.61533 24.3437C4.73038 24.4248 4.86592 24.4718 5.00645 24.4795C5.14698 24.4871 5.28682 24.4551 5.41 24.387L12 20.745L18.59 24.388C18.7132 24.4561 18.853 24.4881 18.9936 24.4805C19.1341 24.4728 19.2696 24.4258 19.3847 24.3447C19.4997 24.2637 19.5897 24.1519 19.6442 24.0221C19.6987 23.8924 19.7156 23.7499 19.693 23.611L18.426 15.844L23.786 10.35C23.8825 10.2514 23.95 10.128 23.9809 9.99354C24.0118 9.85906 24.005 9.71864 23.9613 9.58776C23.9176 9.45687 23.8386 9.34059 23.733 9.25171C23.6275 9.16283 23.4994 9.1048 23.363 9.084Z" fill="#FFC107"/>
</svg>
